<?xml version="1.0" standalone="no"?>
<!DOCTYPE svg PUBLIC "-//W3C//DTD SVG 20010904//EN"
 "http://www.w3.org/TR/2001/REC-SVG-20010904/DTD/svg10.dtd">
<svg version="1.0" xmlns="http://www.w3.org/2000/svg"
 width="700.000000pt" height="700.000000pt" viewBox="0 0 700.000000 700.000000"
 preserveAspectRatio="xMidYMid meet">
<metadata>
Created by potrace 1.14, written by Peter Selinger 2001-2017
</metadata>
<g transform="translate(0.000000,700.000000) scale(0.100000,-0.100000)"
fill="#000000" stroke="none">
<path d="M3447 6964 c-1 -1 -24 -4 -50 -7 -311 -37 -590 -237 -727 -521 -62
-128 -84 -226 -84 -386 -1 -74 2 -153 6 -175 48 -274 249 -534 512 -664 120
-60 217 -82 369 -86 195 -4 338 31 491 122 87 52 240 194 294 274 57 85 121
225 136 301 3 13 9 46 15 73 15 78 5 287 -19 379 -100 389 -469 678 -880 689
-34 1 -62 1 -63 1z"/>
<path d="M1377 6814 c-1 -1 -164 -5 -362 -8 -413 -7 -447 -9 -507 -32 -40 -16
-123 -66 -159 -96 -43 -37 -109 -134 -135 -199 l-29 -74 0 -615 c1 -338 4
-635 7 -660 27 -183 171 -340 369 -400 67 -21 148 -25 444 -21 655 8 690 6
893 -61 83 -28 100 -38 151 -88 157 -156 173 -345 64 -775 -19 -77 -37 -157
-40 -177 l-5 -37 679 2 678 2 2 678 c2 637 1 678 -15 672 -67 -27 -323 -99
-387 -109 -16 -2 -50 -8 -75 -12 -80 -13 -201 -6 -295 15 -48 11 -63 17 -147
56 -111 51 -197 204 -223 400 -13 96 -14 143 -16 610 0 259 -5 501 -11 540
-25 180 -156 316 -363 375 -55 16 -98 18 -291 17 -124 -1 -226 -3 -227 -3z"/>
<path d="M5329 6815 c-2 -1 -54 -6 -115 -9 -167 -9 -254 -45 -345 -142 -87
-94 -144 -224 -154 -357 -8 -92 -8 -309 -2 -657 3 -151 2 -295 -3 -320 -4 -25
-10 -63 -13 -85 -9 -65 -62 -212 -93 -256 -135 -195 -368 -230 -789 -118 -146
38 -234 55 -238 45 -2 -6 -2 -96 -1 -201 2 -104 3 -404 4 -665 l0 -476 665 1
664 0 -5 25 c-4 14 -17 66 -29 115 -13 50 -26 102 -29 118 -3 15 -9 39 -12 55
-22 96 -32 203 -29 307 4 171 37 261 130 364 58 64 148 109 265 136 41 9 93
20 115 25 22 5 144 7 270 3 509 -12 744 -9 828 10 180 43 322 154 365 287 30
91 37 274 35 833 -2 547 -3 559 -65 686 -54 111 -204 237 -303 255 -17 3 -41
8 -55 12 -26 6 -1055 15 -1061 9z"/>
<path d="M908 4415 c-2 -1 -32 -5 -68 -8 -83 -7 -204 -46 -303 -97 -95 -48
-118 -65 -211 -155 -147 -142 -223 -277 -266 -473 -30 -136 -16 -376 29 -495
118 -310 385 -536 701 -595 19 -3 103 -6 185 -5 132 1 161 4 240 27 421 125
711 563 653 987 -11 81 -51 223 -83 294 -134 292 -459 502 -802 519 -40 2 -74
2 -75 1z"/>
<path d="M5997 4414 c-1 -1 -32 -4 -70 -8 -114 -11 -289 -79 -407 -159 -105
-71 -230 -218 -294 -346 -101 -199 -124 -455 -59 -666 87 -287 326 -528 606
-614 129 -39 347 -47 482 -16 331 74 610 360 685 702 26 119 20 298 -16 437
-84 335 -409 613 -774 662 -39 5 -149 11 -153 8z"/>
<path d="M2074 3413 c18 -58 76 -267 80 -286 21 -101 26 -134 32 -189 25 -224
-14 -388 -118 -499 -66 -71 -113 -97 -242 -129 -178 -45 -207 -46 -856 -39
-140 1 -275 -1 -300 -4 -25 -4 -65 -9 -90 -12 -101 -12 -175 -49 -253 -127
-64 -64 -119 -166 -135 -254 -5 -29 -8 -315 -7 -645 1 -532 3 -601 19 -658 48
-175 172 -311 330 -360 71 -22 135 -24 701 -24 504 0 639 3 683 15 109 29 228
121 287 222 73 125 89 234 85 571 -8 605 -6 660 27 795 32 132 64 201 123 261
90 91 179 125 336 128 116 2 182 -9 394 -61 140 -34 131 -32 185 -42 22 -4 47
-10 57 -12 15 -4 16 46 17 680 l0 684 -680 1 c-646 1 -680 0 -675 -16z"/>
<path d="M4068 3422 l-488 -2 0 -413 c-1 -226 -2 -530 -4 -674 -2 -156 1 -263
6 -263 5 0 46 13 91 29 96 34 276 78 364 89 84 11 229 7 294 -8 180 -42 331
-186 349 -332 1 -4 6 -22 11 -40 28 -97 43 -268 42 -458 -1 -74 -2 -254 -4
-400 -3 -330 5 -415 47 -505 49 -104 136 -185 245 -226 76 -30 178 -34 814
-33 534 0 552 1 620 22 197 60 338 230 354 424 6 85 8 1040 1 1183 -5 126 -52
230 -146 322 -61 59 -158 110 -224 118 -25 3 -63 8 -85 11 -22 4 -231 6 -465
6 -234 0 -452 3 -485 8 -33 5 -81 11 -106 14 -26 4 -67 12 -93 20 -25 8 -46
12 -46 11 0 -10 -138 48 -172 72 -76 52 -134 141 -161 246 -15 56 -17 239 -3
297 3 14 9 41 12 60 3 19 21 98 39 175 37 155 47 200 49 230 1 23 30 22 -856
17z"/>
<path d="M3409 1866 c-2 -2 -27 -6 -55 -10 -62 -7 -161 -37 -240 -72 -308
-136 -524 -467 -528 -809 -2 -217 40 -367 149 -530 148 -222 380 -368 640
-402 60 -8 102 -7 215 0 105 8 126 12 220 43 192 65 353 199 477 399 86 138
134 323 128 490 -4 122 -6 137 -40 245 -39 121 -97 237 -150 297 -158 177
-322 279 -530 328 -63 15 -276 31 -286 21z"/>
</g>
</svg>
